<svg xmlns="http://www.w3.org/2000/svg" width="1200" height="630" viewBox="0 0 1200 630">
  <title>Final Prime social cover</title>
  <desc>Final Prime signal lattice, name, doctrine, and public surface index.</desc>
  <metadata>Copyright © 2026 Daniel Kenessy. All rights reserved. Final Prime™ and the Final Prime logo are claimed as unregistered marks of Daniel Kenessy.</metadata>
  <defs>
    <pattern id="grid" width="64" height="64" patternUnits="userSpaceOnUse">
      <path d="M64 0H0V64" fill="none" stroke="#2d3941" stroke-width="1"/>
    </pattern>
    <radialGradient id="glow" cx="78%" cy="12%" r="58%">
      <stop offset="0" stop-color="#f5054d" stop-opacity=".19"/>
      <stop offset="1" stop-color="#090b0d" stop-opacity="0"/>
    </radialGradient>
  </defs>
  <rect width="1200" height="630" fill="#090b0d"/>
  <rect width="1200" height="630" fill="url(#grid)" opacity=".70"/>
  <rect width="1200" height="630" fill="url(#glow)"/>

  <g transform="translate(72 44)">
    <rect x="1" y="1" width="52" height="52" fill="#090b0d" stroke="#43515a" stroke-width="2"/>
    <path d="M9 14H38M43 14H47" fill="none" stroke="#f5054d" stroke-width="3"/>
    <path d="M9 27H21M33 27H46" fill="none" stroke="#f2f4f5" stroke-width="3"/>
    <path d="M9 40H35M40 40H46" fill="none" stroke="#0ae8f7" stroke-width="3"/>
    <path d="M27 9V21M27 33V47" fill="none" stroke="#7f8a91" stroke-width="2"/>
    <rect x="23" y="23" width="8" height="8" fill="#090b0d" stroke="#f2f4f5" stroke-width="2"/>
  </g>
  <text x="144" y="80" fill="#aab4ba" font-family="monospace" font-size="18" font-weight="700" letter-spacing="4">FP / ROOT · INDEPENDENT UMBRELLA</text>

  <text x="66" y="270" fill="#f2f4f5" font-family="Arial, sans-serif" font-size="132" font-weight="800" letter-spacing="-8">FINAL</text>
  <text x="495" y="270" fill="#f5054d" font-family="Arial, sans-serif" font-size="108" font-weight="300">/</text>
  <text x="560" y="270" fill="#f2f4f5" font-family="Arial, sans-serif" font-size="132" font-weight="800" letter-spacing="-8">PRIME</text>
  <rect x="67" y="182" width="160" height="3" fill="#0ae8f7" opacity=".18"/>
  <rect x="812" y="287" width="196" height="3" fill="#f5054d" opacity=".18"/>

  <line x1="72" y1="322" x2="270" y2="322" stroke="#f5054d" stroke-width="2"/>
  <line x1="270" y1="322" x2="1048" y2="322" stroke="#43515a"/>
  <line x1="1048" y1="322" x2="1128" y2="322" stroke="#0ae8f7" stroke-width="2"/>
  <text x="74" y="402" fill="#f2f4f5" font-family="Arial, sans-serif" font-size="42" font-weight="700">KNOWING THE NEXT MOVE <tspan fill="#0ae8f7">IS SURVIVAL.</tspan></text>
  <text x="74" y="468" fill="#f2f4f5" font-family="Arial, sans-serif" font-size="42" font-weight="700">UNDERSTANDING THE GAME <tspan fill="#f5054d">IS CONTROL.</tspan></text>
  <line x1="74" y1="536" x2="1126" y2="536" stroke="#43515a"/>
  <text x="74" y="580" fill="#aab4ba" font-family="monospace" font-size="17" letter-spacing="3">SYSTEMS / WORKS / THOUGHT / INDEX</text>
  <rect x="1083" y="555" width="22" height="22" fill="#0ae8f7"/>
</svg>
